<svg viewBox="0 0 320 200" xmlns="http://www.w3.org/2000/svg">
  <rect width="320" height="200" fill="#0e0f13"/>
  <!-- server rack 1 -->
  <rect x="30" y="40" width="60" height="120" rx="3" fill="none" stroke="#00c8ff" stroke-width="1.2" opacity="0.5"/>
  <rect x="35" y="52" width="50" height="8" rx="1" fill="#00c8ff" opacity="0.15"/>
  <rect x="35" y="66" width="50" height="8" rx="1" fill="#00c8ff" opacity="0.15"/>
  <rect x="35" y="80" width="50" height="8" rx="1" fill="#00c8ff" opacity="0.15"/>
  <rect x="35" y="94" width="50" height="8" rx="1" fill="#00c8ff" opacity="0.15"/>
  <rect x="35" y="108" width="50" height="8" rx="1" fill="#00c8ff" opacity="0.15"/>
  <rect x="35" y="122" width="50" height="8" rx="1" fill="#00c8ff" opacity="0.15"/>
  <circle cx="77" cy="56"  r="2" fill="#ffe600"/>
  <circle cx="77" cy="70"  r="2" fill="#00c8ff"/>
  <circle cx="77" cy="84"  r="2" fill="#ffe600"/>
  <circle cx="77" cy="98"  r="2" fill="#00c8ff"/>
  <circle cx="77" cy="112" r="2" fill="#ffe600"/>
  <circle cx="77" cy="126" r="2" fill="#00c8ff"/>
  <!-- server rack 2 -->
  <rect x="110" y="40" width="60" height="120" rx="3" fill="none" stroke="#00c8ff" stroke-width="1.2" opacity="0.5"/>
  <rect x="115" y="52" width="50" height="8" rx="1" fill="#00c8ff" opacity="0.15"/>
  <rect x="115" y="66" width="50" height="8" rx="1" fill="#00c8ff" opacity="0.15"/>
  <rect x="115" y="80" width="50" height="8" rx="1" fill="#00c8ff" opacity="0.15"/>
  <rect x="115" y="94" width="50" height="8" rx="1" fill="#00c8ff" opacity="0.15"/>
  <rect x="115" y="108" width="50" height="8" rx="1" fill="#00c8ff" opacity="0.15"/>
  <circle cx="157" cy="56"  r="2" fill="#00c8ff"/>
  <circle cx="157" cy="70"  r="2" fill="#ffe600"/>
  <circle cx="157" cy="84"  r="2" fill="#00c8ff"/>
  <circle cx="157" cy="98"  r="2" fill="#ffe600"/>
  <circle cx="157" cy="112" r="2" fill="#00c8ff"/>
  <!-- cloud shape -->
  <ellipse cx="250" cy="90"  rx="50" ry="30" fill="none" stroke="#ffe600" stroke-width="1.2" opacity="0.6"/>
  <ellipse cx="230" cy="100" rx="35" ry="22" fill="none" stroke="#ffe600" stroke-width="1"   opacity="0.4"/>
  <ellipse cx="270" cy="98"  rx="38" ry="24" fill="none" stroke="#ffe600" stroke-width="1"   opacity="0.4"/>
  <!-- connection lines -->
  <line x1="190" y1="100" x2="210" y2="100" stroke="#00c8ff" stroke-width="0.8" stroke-dasharray="3,3" opacity="0.5"/>
  <line x1="250" y1="120" x2="250" y2="155" stroke="#ffe600" stroke-width="0.8" stroke-dasharray="3,3" opacity="0.5"/>
  <circle cx="250" cy="158" r="3" fill="#ffe600" opacity="0.7"/>
</svg>
