<svg viewBox="0 0 320 200" xmlns="http://www.w3.org/2000/svg">
  <rect width="320" height="200" fill="#0e0f13"/>
  <!-- on-prem box -->
  <rect x="20" y="60" width="90" height="80" rx="3" fill="none" stroke="#00c8ff" stroke-width="1.2" opacity="0.55"/>
  <text x="65" y="97" text-anchor="middle" font-family="monospace" font-size="7.5" fill="#00c8ff" opacity="0.6">ON-PREM</text>
  <rect x="30" y="105" width="70" height="6" rx="1" fill="#00c8ff" opacity="0.12"/>
  <rect x="30" y="116" width="50" height="6" rx="1" fill="#00c8ff" opacity="0.12"/>
  <!-- cloud / AWS box -->
  <rect x="210" y="60" width="90" height="80" rx="3" fill="none" stroke="#ffe600" stroke-width="1.2" opacity="0.55"/>
  <text x="255" y="97" text-anchor="middle" font-family="monospace" font-size="7.5" fill="#ffe600" opacity="0.6">AWS CLOUD</text>
  <rect x="220" y="105" width="70" height="6" rx="1" fill="#ffe600" opacity="0.12"/>
  <rect x="220" y="116" width="50" height="6" rx="1" fill="#ffe600" opacity="0.12"/>
  <!-- migration arrow -->
  <line x1="118" y1="100" x2="202" y2="100" stroke="#00c8ff" stroke-width="1.2" stroke-dasharray="5,3" opacity="0.6"/>
  <polygon points="202,96 210,100 202,104" fill="#00c8ff" opacity="0.8"/>
  <!-- DR shield -->
  <path d="M155,130 L170,135 L170,148 Q170,158 160,162 Q150,158 150,148 L150,135 Z"
        fill="none" stroke="#ffe600" stroke-width="1.2" opacity="0.7"/>
  <polyline points="154,148 158,153 168,140" fill="none" stroke="#ffe600" stroke-width="1.5" opacity="0.8"/>
  <text x="160" y="178" text-anchor="middle" font-family="monospace" font-size="6.5" fill="#ffe600" opacity="0.6">DR</text>
</svg>
